<?xml version="1.0" encoding="UTF-8"?>
<svg id="Layer_1" data-name="Layer 1" xmlns="http://www.w3.org/2000/svg" viewBox="0 0 1187.69 591.01">
  <defs>
    <style>
      .cls-1 {
        stroke: #f28b50;
      }

      .cls-1, .cls-2 {
        fill: none;
        isolation: isolate;
        stroke-miterlimit: 10;
        stroke-width: 2px;
      }

      .cls-2 {
        stroke: #160d08;
      }

      .cls-3 {
        opacity: .3;
      }
    </style>
  </defs>
  <g class="cls-3">
    <path class="cls-2" d="m1126.44,483.76l9.28-2.96c3.01-.96,6.18-.25,8.37,1.87l6.39,6.19c2.18,2.11,3.08,5.33,2.39,8.5l-2.14,9.84c-1.1,3.07-2.06,3.92-4.12,4.54l-9.27,2.8c-2.97.9-6.08.18-8.23-1.91l-6.49-6.29c-2.2-2.14-3.1-5.39-2.37-8.6l2.17-9.51c.48-2.12,2.02-3.82,4.02-4.46Z"/>
    <path class="cls-2" d="m1141.89,403.44l13.5-4.68c4.38-1.52,9.07-.84,12.38,1.81l9.66,7.7c3.3,2.63,4.77,6.82,3.89,11.09l-2.71,13.23c-.6,2.93-2.85,5.37-5.85,6.36l-13.5,4.46c-4.33,1.43-8.92.72-12.18-1.87l-9.82-7.83c-3.33-2.66-4.8-6.91-3.87-11.22l2.76-12.79c.62-2.85,2.8-5.24,5.71-6.25Z"/>
    <path class="cls-1" d="m1163.11,499.62l8.33-1.79c2.7-.58,5.44.17,7.23,1.99l5.22,5.29c1.78,1.81,2.38,4.41,1.57,6.88l-2.49,7.66c-.55,1.7-2.05,2.98-3.9,3.35l-8.31,1.66c-2.67.53-5.34-.23-7.11-2.01l-5.31-5.38c-1.8-1.82-2.39-4.46-1.55-6.96l2.5-7.4c.56-1.65,2.01-2.91,3.81-3.29Z"/>
    <path class="cls-2" d="m1118.3,327.73l11.32-2.51c3.67-.81,7.37.17,9.78,2.6l7.01,7.09c2.39,2.42,3.16,5.93,2.04,9.28l-3.48,10.38c-.77,2.3-2.82,4.06-5.33,4.57l-11.29,2.33c-3.62.75-7.24-.25-9.61-2.64l-7.12-7.21c-2.42-2.45-3.18-6-2-9.38l3.48-10.03c.78-2.24,2.76-3.95,5.21-4.49Z"/>
    <path class="cls-2" d="m1152.67,4.85l7.62-1.43c2.47-.46,4.93.28,6.5,1.96l4.57,4.91c1.56,1.67,2.01,4.04,1.2,6.26l-2.51,6.88c-.56,1.52-1.96,2.65-3.65,2.94l-7.6,1.31c-2.44.42-4.84-.33-6.38-1.98l-4.64-4.99c-1.57-1.69-2.02-4.09-1.17-6.33l2.51-6.64c.56-1.48,1.92-2.59,3.56-2.89Z"/>
    <path class="cls-1" d="m1125.75,277.82l12.2,1.31c3.96.42,7.33,2.66,8.92,5.92l4.61,9.49c1.57,3.24,1.15,7.02-1.12,10l-7.03,9.24c-1.56,2.05-4.21,3.12-6.9,2.79l-12.12-1.48c-3.88-.47-7.18-2.7-8.73-5.9l-4.68-9.64c-1.59-3.27-1.14-7.09,1.19-10.09l6.91-8.89c1.54-1.98,4.12-3.03,6.75-2.75Z"/>
    <path class="cls-2" d="m1162.79,308.89l8.27.94c2.68.3,5,1.87,6.13,4.13l3.28,6.6c1.12,2.25.9,4.88-.58,6.95l-4.59,6.4c-1.78,1.86-2.79,2.16-4.62,1.92l-8.22-1.06c-2.63-.34-4.9-1.89-6-4.12l-3.33-6.71c-1.13-2.28-.89-4.93.63-7.01l4.52-6.16c1.01-1.37,2.73-2.1,4.52-1.89Z"/>
    <path class="cls-1" d="m1043.06,327.54c1.21-1.75,2.34-2.74,2.89-3.28.55-.54.54-.57,1.69-.65,2.16-.14,5.15-.28,8.27.09,1.85.22,4.51.97,6.52,1.6,1.17.37,2.35.77,3.11,1.77.5.66,1.04,1.41,1.59,2.24,1.01,1.52,2.55,3.88,3.86,7.27.27.71.57,1.55.85,2.5.38,1.28.14,2.67-.64,3.75l-3.7,5.19,1.35-1.9c-1.16,1.69-2.21,3.07-3.04,4.11-1.99,2.5-2.97,3.4-3.87,4.08-.3.23-.59.43-.85.61-.5.33-1.08.52-1.67.56-.34.02-.75.04-1.2.06-2.51.09-7.08.21-12.28-1.65-.54-.19-1.4-.52-2.43-1"/>
    <path class="cls-1" d="m972.59,96.06c2.15-.94,4.04-1.45,5.44-1.73,2.82-.58,5.06-.57,7.24-.55,2.3.02,3.46.03,4.28.31,1.49.5,3.05,2.2,6.09,5.58,0,0,1.56,1.73,3.72,4.53,1.22,1.58,1.48,2.2,1.87,2.85.89,1.47,1.06,3.29.48,4.91l-2.75,7.7,1-2.82c-.84,2.49-1.66,4.57-2.31,6.13-1.57,3.78-2.47,5.22-3.33,6.37-.29.39-.57.74-.83,1.04-.18.22-.36.39-.6.58-.25.19-.65.47-1.23.67"/>
    <path class="cls-2" d="m1023.86,166.32c2.33-.64,4.32-.89,5.78-.98,2.96-.2,5.24.1,7.46.41,2.35.32,3.52.49,4.32.87,1.45.69,2.81,2.56,5.45,6.26,0,0,1.36,1.9,3.18,4.93,1.03,1.71,1.21,2.34,1.52,3.04.7,1.56.63,3.36-.18,4.86l-3.85,7.17,1.41-2.63c-1.2,2.33-2.31,4.25-3.19,5.7-2.12,3.49-3.23,4.79-4.26,5.8-.35.34-.68.65-.99.91-.22.19-.42.33-.7.49-.28.16-.73.37-1.35.49"/>
    <path class="cls-1" d="m1048.21,155.31l6.83-13.41c2.22-4.35,6.45-7.18,11.19-7.47l13.82-.86c4.71-.29,9.26,1.97,12.02,5.97l8.55,12.41c2.2,4.36,2.1,6.29.54,9.24l-7.01,13.23c-2.25,4.24-6.43,6.98-11.09,7.27l-14.04.87c-4.76.3-9.35-2.01-12.1-6.09l-8.16-12.1c-1.82-2.7-2.03-6.15-.56-9.05Z"/>
    <path class="cls-1" d="m1090.08,42.63c.91.44,1.71,1.13,2.29,2l5.42,8.09c1.76,2.62,2.03,5.89.72,8.63l-3.83,7.98c-1.31,2.72-3.99,4.53-7.11,4.8l-9.65.81c-1.3-.07-2.24-.22-2.98-.51"/>
    <path class="cls-2" d="m1071.03,82.57l13.28.79c4.31.26,7.94,2.57,9.59,6.12l4.82,10.35c1.64,3.53,1.1,7.78-1.44,11.24l-7.87,10.72c-3.01,3.15-4.66,3.72-7.59,3.5l-13.18-.98c-4.23-.32-7.77-2.62-9.39-6.11l-4.9-10.52c-1.66-3.57-1.09-7.87,1.52-11.35l7.73-10.32c1.72-2.3,4.56-3.62,7.42-3.45Z"/>
    <path class="cls-2" d="m962.06,205.46l-6.25,15.49c-2.03,5.03-6.26,8.43-11.18,9l-14.34,1.65c-4.89.56-9.77-1.77-12.91-6.16l-9.71-13.61c-2.57-4.82-2.6-7.01-1.16-10.41l6.45-15.3c2.07-4.9,6.25-8.21,11.08-8.76l14.57-1.67c4.95-.57,9.87,1.82,13,6.3l9.29,13.28c2.07,2.96,2.52,6.86,1.17,10.2Z"/>
    <path class="cls-1" d="m975.09,149.51l13.46-.76c4.37-.25,8.41,1.71,10.68,5.17l6.61,10.09c2.25,3.44,2.43,7.88.48,11.74l-6.06,11.97c-1.34,2.65-4.04,4.38-7.02,4.5l-13.4.54c-4.29.17-8.24-1.78-10.47-5.18l-6.72-10.25c-2.28-3.48-2.44-7.97-.42-11.86l5.99-11.54c1.34-2.57,3.96-4.26,6.86-4.42Z"/>
    <path class="cls-2" d="m993.4,60.04l-5.75,10.24c-1.87,3.32-5.25,5.39-8.94,5.47l-10.76.22c-3.67.07-7.12-1.84-9.13-5.05l-6.23-9.96c-1.38-2.2-1.42-4.98-.11-7.22l5.88-10.09c1.89-3.24,5.22-5.24,8.85-5.31l10.93-.22c3.71-.07,7.19,1.88,9.2,5.15l5.94,9.71c1.32,2.17,1.37,4.87.13,7.08Z"/>
    <path class="cls-2" d="m1019.11,114.86l13.28-1.05c4.31-.34,8.24,1.45,10.39,4.73l6.27,9.57c2.14,3.26,2.21,7.54.19,11.31l-6.26,11.68c-2.53,3.52-4.08,4.31-7.02,4.5l-13.21.84c-4.24.27-8.08-1.52-10.19-4.75l-6.37-9.72c-2.16-3.3-2.21-7.63-.13-11.43l6.18-11.26c1.38-2.51,4-4.2,6.87-4.43Z"/>
    <path class="cls-2" d="m1109.51,14.73l13.09-2.48c4.25-.81,8.35.55,10.85,3.58l7.28,8.83c2.48,3.01,3.02,7.26,1.43,11.23l-4.94,12.29c-2.13,3.78-3.59,4.73-6.48,5.24l-13.04,2.27c-4.18.73-8.2-.63-10.65-3.61l-7.4-8.97c-2.51-3.05-3.03-7.35-1.38-11.35l4.91-11.87c1.09-2.65,3.51-4.61,6.34-5.15Z"/>
    <path class="cls-1" d="m1013.88,412.75l10.35-.61c3.36-.2,6.46,1.29,8.19,3.94l5.05,7.71c1.72,2.63,1.85,6.03.34,9l-4.69,9.18c-1.91,2.76-3.11,3.36-5.4,3.46l-10.29.45c-3.3.14-6.33-1.34-8.03-3.94l-5.13-7.84c-1.74-2.66-1.85-6.1-.29-9.09l4.63-8.85c1.03-1.97,3.05-3.27,5.28-3.41Z"/>
    <path class="cls-1" d="m1115.24,66.04l8.29-.08c2.69-.03,5.11,1.28,6.39,3.46l3.74,6.36c1.27,2.17,1.24,4.89-.08,7.2l-4.1,7.15c-1.64,2.13-2.62,2.56-4.45,2.55l-8.24-.04c-2.64-.01-5-1.32-6.26-3.46l-3.8-6.46c-1.29-2.19-1.24-4.95.12-7.27l4.05-6.89c.9-1.54,2.56-2.5,4.35-2.51Z"/>
    <path class="cls-1" d="m925.91,125.86l12.46-.81c4.04-.26,7.76,1.5,9.83,4.65l6.02,9.2c2.06,3.14,2.18,7.21.34,10.77l-5.71,11.03c-2.32,3.32-3.77,4.05-6.53,4.18l-12.39.61c-3.97.2-7.61-1.56-9.64-4.66l-6.12-9.34c-2.08-3.17-2.18-7.29-.28-10.88l5.64-10.63c1.26-2.37,3.69-3.94,6.38-4.12Z"/>
    <path class="cls-1" d="m1153.75,36.94l12.5-2.59c4.06-.84,8.06.41,10.58,3.3l7.35,8.44c2.51,2.88,3.19,6.97,1.81,10.83l-4.28,11.95c-1.9,3.68-3.27,4.63-6.04,5.16l-12.46,2.38c-4,.76-7.91-.5-10.39-3.34l-7.47-8.57c-2.53-2.91-3.2-7.06-1.76-10.95l4.27-11.54c.95-2.57,3.2-4.51,5.9-5.07Z"/>
    <path class="cls-1" d="m1038.07,60.93l8.71,11.86c2.83,3.85,3.41,8.57,1.55,12.49l-5.42,11.41c-1.85,3.89-5.86,6.43-10.6,6.71l-14.7.88c-4.81-.34-6.46-1.34-8.34-3.99l-8.47-11.91c-2.72-3.82-3.25-8.46-1.42-12.31l5.51-11.6c1.87-3.94,5.94-6.48,10.75-6.72l14.26-.71c3.18-.16,6.3,1.32,8.18,3.88Z"/>
    <path class="cls-2" d="m1001.83,380.73l4.26-10.52c1.38-3.42,4.27-5.76,7.63-6.2l9.79-1.27c3.34-.43,6.67,1.08,8.82,4.01l6.64,9.07c1.76,3.23,1.78,4.7.8,7.01l-4.39,10.39c-1.41,3.33-4.26,5.61-7.56,6.04l-9.95,1.29c-3.38.44-6.74-1.12-8.88-4.1l-6.35-8.86c-1.42-1.98-1.72-4.6-.8-6.87Z"/>
    <path class="cls-2" d="m1030.32,225.1l5.65-10.93c1.83-3.55,5.18-5.79,8.84-5.92l10.68-.39c3.64-.13,7.08,1.84,9.1,5.21l6.24,10.45c1.57,3.66,1.44,5.25.16,7.65l-5.78,10.78c-1.85,3.45-5.15,5.62-8.76,5.76l-10.85.39c-3.68.13-7.15-1.88-9.16-5.32l-5.95-10.19c-1.33-2.27-1.39-5.13-.17-7.49Z"/>
    <path class="cls-2" d="m1140.95,130c.48,1.28.81,2.43,1.02,3.39.21.95.06,1.88-.35,2.71-1.05,2.12-2.52,4.58-4.6,7.06-1.68,2.01-3.42,3.63-5.01,4.92-1.02.82-2.3,1.31-3.7,1.42-.93.07-1.97.12-3.11.13-2.07.02-5.27.04-9.4-.79-.87-.17-1.87-.41-2.99-.72-1.49-.42-2.78-1.48-3.47-2.85l-3.32-6.53,1.22,2.39c-1.1-2.09-1.95-3.89-2.57-5.28-1.49-3.34-1.88-4.79-2.11-6.03-.08-.42-.13-.81-.17-1.15-.08-.67.04-1.31.31-1.88.16-.33.35-.72.57-1.14,1.23-2.38,3.51-6.68,8.12-10.37.48-.38,1.26-.98,2.29-1.65"/>
    <path class="cls-2" d="m1073.35,354.61l15.25-3.98c4.95-1.29,9.99,0,13.32,3.43l9.7,9.97c3.31,3.4,4.46,8.42,3.04,13.28l-4.4,15.05c-.97,3.33-3.69,5.92-7.08,6.75l-15.22,3.72c-4.88,1.19-9.81-.12-13.08-3.49l-9.86-10.13c-3.35-3.44-4.48-8.53-2.99-13.43l4.41-14.54c.98-3.24,3.62-5.77,6.92-6.63Z"/>
    <path class="cls-1" d="m1045.33,273.1l13.62-.86c4.42-.28,8.49,1.66,10.76,5.12l6.61,10.09c2.25,3.44,2.4,7.9.39,11.8l-6.22,12.07c-1.38,2.67-4.12,4.43-7.13,4.57l-13.55.65c-4.35.21-8.32-1.73-10.55-5.13l-6.72-10.25c-2.28-3.48-2.4-7.99-.33-11.92l6.15-11.64c1.37-2.59,4.03-4.31,6.97-4.5Z"/>
    <path class="cls-1" d="m1058.93,65.75c-.92-.58-1.7-1.38-2.24-2.34l-5.03-8.91c-1.63-2.89-1.66-6.21-.07-8.78l4.64-7.47c1.58-2.55,4.54-3.98,7.82-3.8l10.17.58c1.35.26,2.32.55,3.08.94"/>
    <path class="cls-1" d="m1087.3,192.45l7.57,10.98c2.45,3.56,2.86,7.85,1.07,11.34l-5.23,10.16c-1.78,3.47-5.48,5.64-9.79,5.76l-13.34.36c-4.35-.45-5.81-1.4-7.45-3.85l-7.35-11.02c-2.36-3.53-2.72-7.74-.95-11.17l5.31-10.32c1.8-3.5,5.56-5.69,9.92-5.76l12.94-.22c2.89-.05,5.67,1.38,7.31,3.75Z"/>
    <path class="cls-2" d="m1150.07,82.94l12.74.11c4.13.04,7.82,2.13,9.74,5.52l5.59,9.9c1.91,3.38,1.8,7.57-.29,11.09l-6.47,10.89c-2.56,3.23-4.08,3.87-6.9,3.8l-12.66-.31c-4.06-.1-7.66-2.18-9.54-5.52l-5.68-10.06c-1.93-3.41-1.79-7.66.36-11.19l6.38-10.49c1.42-2.34,4-3.77,6.75-3.75Z"/>
    <path class="cls-1" d="m1166.61,278.34c-12.16-2.66-12.71-2.34-14.64-5.39l-6.28-9.3c-2.13-3.15-2.24-7.33-.3-11.01l5.78-10.93c1.29-2.44,3.79-4.1,6.54-4.35l14.64-.56c3.89-.12,3.86.56,8.71,4.33"/>
    <path class="cls-2" d="m1084.17,306.69l10.37-1.06c3.37-.35,6.55,1.02,8.42,3.61l5.45,7.55c1.86,2.58,2.15,6,.77,9.05l-4.28,9.45c-1.79,2.86-2.97,3.52-5.27,3.72l-10.33.9c-3.31.29-6.43-1.08-8.27-3.63l-5.54-7.67c-1.88-2.6-2.15-6.07-.73-9.14l4.24-9.12c.95-2.03,2.91-3.43,5.15-3.66Z"/>
    <path class="cls-2" d="m1025.34,256.71c.82.54,1.49,1.33,1.93,2.33l4.07,9.25c1.32,3,1.1,6.65-.57,9.65l-4.88,8.73c-1.67,2.98-4.54,4.88-7.6,5.04l-9.48.48c-1.25-.13-2.14-.35-2.81-.7"/>
    <path class="cls-1" d="m946.8,317.3c1.82,1.54,3.13,3.03,4.01,4.16,1.8,2.3,2.79,4.34,3.76,6.33,1.02,2.1,1.52,3.15,1.64,4.02.22,1.58-.62,3.75-2.32,8.02,0,0-.87,2.19-2.43,5.4-.88,1.81-1.32,2.32-1.74,2.97-.93,1.46-2.5,2.43-4.22,2.62l-8.2.94,3.01-.35c-2.64.35-4.88.53-6.59.64-4.12.25-5.84.09-7.26-.18-.48-.09-.92-.19-1.31-.29-.28-.07-.51-.16-.8-.29-.29-.14-.71-.38-1.16-.82"/>
    <path class="cls-1" d="m940.42,545.27c2.31-.56,4.29-.74,5.73-.79,2.92-.09,5.15.3,7.32.7,2.29.42,3.44.63,4.21,1.05,1.4.76,2.65,2.72,5.09,6.6,0,0,1.25,1.99,2.92,5.15.94,1.78,1.09,2.44,1.37,3.16.62,1.62.48,3.46-.38,4.96l-4.09,7.18,1.5-2.63c-1.28,2.34-2.45,4.25-3.38,5.7-2.23,3.48-3.38,4.77-4.44,5.76-.36.34-.7.63-1.01.89-.22.18-.43.32-.7.47-.28.15-.73.35-1.34.45"/>
    <path class="cls-2" d="m1054.37,508.42l5.22,11.98c1.69,3.89,1.27,8.21-1.12,11.42l-6.98,9.37c-2.38,3.19-6.37,4.84-10.56,4.34l-12.96-1.53c-2.87-.34-5.35-2.21-6.47-4.88l-5.01-11.99c-1.61-3.84-1.15-8.08,1.2-11.24l7.09-9.52c2.41-3.23,6.45-4.87,10.68-4.33l12.54,1.61c2.8.36,5.22,2.18,6.35,4.76Z"/>
    <path class="cls-1" d="m1009.79,471.11c1.13.77,2.06,1.84,2.67,3.11l5.65,11.83c1.83,3.84,1.56,8.23-.74,11.61l-6.69,9.84c-2.28,3.36-6.23,5.23-10.45,4.96l-13.06-.84c-1.72-.35-2.95-.74-3.88-1.27"/>
    <path class="cls-2" d="m1158.75,526.46l8.04,9.26c2.61,3.01,3.43,6.94,2.18,10.41l-3.66,10.1c-1.25,3.44-4.38,5.93-8.27,6.58l-12.07,2c-3.99.13-5.43-.58-7.17-2.65l-7.85-9.33c-2.52-2.99-3.29-6.86-2.06-10.27l3.72-10.26c1.26-3.48,4.44-5.98,8.39-6.59l11.72-1.82c2.61-.41,5.3.58,7.04,2.58Z"/>
    <path class="cls-1" d="m1035.09,465.48l8.95.21c2.9.07,5.51,1.6,6.88,4.05l4.01,7.15c1.37,2.44,1.32,5.44-.11,7.94l-4.45,7.74c-1.77,2.29-2.83,2.74-4.81,2.66l-8.89-.35c-2.85-.11-5.39-1.64-6.75-4.05l-4.07-7.27c-1.38-2.47-1.32-5.5.16-8.02l4.39-7.46c.98-1.66,2.78-2.66,4.71-2.62Z"/>
    <path class="cls-1" d="m1110.55,505.95l8.86,11.31c2.87,3.67,3.59,8.22,1.9,12.03l-4.93,11.1c-1.68,3.79-5.51,6.3-10.13,6.65l-14.3,1.08c-4.7-.25-6.34-1.19-8.25-3.72l-8.63-11.37c-2.77-3.64-3.43-8.11-1.77-11.86l5.01-11.28c1.7-3.83,5.59-6.35,10.27-6.66l13.88-.91c3.09-.2,6.18,1.18,8.1,3.62Z"/>
    <path class="cls-1" d="m1021.26,590.03c-1.49-.27-2.76-.59-3.79-.92-1.01-.33-1.78-.96-2.27-1.76-1.28-2.06-2.59-4.67-3.54-7.83-.77-2.56-1.14-4.95-1.29-7.04-.1-1.34.27-2.72,1.09-4.01.54-.85,1.17-1.79,1.9-2.8,1.32-1.82,3.38-4.65,6.82-7.83.72-.67,1.59-1.43,2.59-2.24,1.35-1.09,3.16-1.65,4.87-1.52l8.18.59-3-.21c2.64.15,4.85.37,6.53.57,4.04.48,5.64.92,6.93,1.39.44.16.83.32,1.17.47.66.29,1.18.73,1.53,1.28.2.32.44.69.69,1.11,1.4,2.36,3.89,6.66,4.31,12.7.04.63.09,1.63.04,2.9"/>
    <path class="cls-1" d="m1148.56,174.18c-.88-.62-1.58-1.49-2.01-2.55l-3.97-9.85c-1.29-3.2-.82-6.93,1.23-9.87l5.98-8.58c2.04-2.93,5.36-4.65,8.78-4.56l10.6.28c1.38.24,2.36.53,3.1.95"/>
    <path class="cls-2" d="m1109.22,486.88l-11.83,5.54c-3.84,1.8-8.07,1.49-11.17-.8l-9.05-6.68c-3.09-2.28-4.62-6.21-4.07-10.39l1.73-12.94c1.11-4.12,2.26-5.39,4.9-6.57l11.84-5.32c3.8-1.71,7.94-1.37,10.99.88l9.2,6.79c3.12,2.3,4.66,6.29,4.05,10.51l-1.8,12.53c-.4,2.79-2.22,5.26-4.78,6.45Z"/>
    <path class="cls-2" d="m1104.8,252.67l-8.12-12.46c-2.63-4.04-2.97-8.86-.88-12.72l6.08-11.27c2.07-3.84,6.25-6.2,11.04-6.24l14.84-.12c4.82.59,6.43,1.69,8.18,4.47l7.88,12.5c2.53,4.01,2.81,8.73.76,12.53l-6.18,11.45c-2.1,3.89-6.34,6.25-11.19,6.24l-14.39-.03c-3.21,0-6.27-1.67-8.03-4.36Z"/>
    <path class="cls-1" d="m1001.74,530.21l4.99,10.91c1.62,3.54,1.33,7.49-.77,10.43l-6.12,8.58c-2.09,2.93-5.67,4.44-9.47,4.01l-11.77-1.33c-2.61-.29-4.9-1.99-5.96-4.42l-4.8-10.92c-1.54-3.5-1.22-7.37.84-10.26l6.22-8.71c2.11-2.96,5.74-4.47,9.58-4l11.4,1.41c2.54.31,4.78,1.96,5.85,4.32Z"/>
    <path class="cls-1" d="m965.67,294.27l9.66-2.54c3.13-.83,6.39,0,8.61,2.17l6.46,6.33c2.2,2.16,3.07,5.35,2.28,8.44l-2.44,9.57c-1.21,2.97-2.21,3.77-4.36,4.3l-9.64,2.38c-3.09.76-6.28-.07-8.46-2.2l-6.57-6.43c-2.23-2.18-3.08-5.42-2.25-8.54l2.46-9.25c.55-2.06,2.17-3.68,4.26-4.23Z"/>
    <path class="cls-1" d="m999.44,364.23l-5.61,12.22c-1.82,3.96-5.34,6.54-9.3,6.81l-11.54.78c-3.94.27-7.75-1.79-10.08-5.44l-7.23-11.3c-1.87-3.97-1.8-5.73-.52-8.41l5.76-12.05c1.85-3.86,5.32-6.36,9.21-6.63l11.72-.79c3.98-.27,7.83,1.83,10.15,5.55l6.9,11.03c1.54,2.46,1.74,5.61.53,8.24Z"/>
    <path class="cls-1" d="m1150.65,379.99l-.46,8.35c-.15,2.71-1.63,5.05-3.92,6.2l-6.67,3.33c-2.27,1.13-5.02.92-7.27-.58l-6.95-4.62c-2.04-1.79-2.42-2.81-2.29-4.66l.59-8.29c.19-2.66,1.66-4.95,3.91-6.07l6.78-3.38c2.3-1.15,5.08-.91,7.34.62l6.69,4.55c1.49,1.01,2.35,2.75,2.25,4.56Z"/>
    <path class="cls-2" d="m966.9,582.58c.27-.99.8-1.92,1.56-2.69l7.06-7.13c2.29-2.32,5.52-3.33,8.52-2.69l8.76,1.87c2.99.64,5.33,2.83,6.21,5.79l2.7,9.19c.18,1.27.21,2.22.07,3.01"/>
    <path class="cls-1" d="m1134.05,588.81c-.12-.96.02-1.97.43-2.93l3.81-8.91c1.24-2.89,3.81-5.02,6.81-5.63l8.73-1.77c2.98-.6,5.94.39,7.85,2.62l5.9,6.91c.64,1.03,1.03,1.85,1.19,2.58"/>
    <path class="cls-1" d="m1084.08,402.97l-4.19,12.81c-1.36,4.16-4.57,7.13-8.48,7.85l-11.4,2.1c-3.89.72-7.92-.89-10.67-4.26l-8.5-10.43c-2.32-3.74-2.45-5.51-1.48-8.32l4.35-12.67c1.4-4.06,4.57-6.95,8.41-7.65l11.58-2.13c3.93-.72,8,.93,10.75,4.37l8.14,10.19c1.82,2.27,2.38,5.38,1.48,8.15Z"/>
    <path class="cls-2" d="m1128,571.82l-2.62,9.05c-.85,2.94-3.08,5.14-5.89,5.82l-8.19,1.98c-2.79.68-5.76-.25-7.86-2.45l-6.49-6.81c-1.8-2.48-1.95-3.69-1.34-5.68l2.75-8.96c.88-2.87,3.08-5.01,5.85-5.68l8.32-2.02c2.82-.68,5.83.27,7.92,2.51l6.22,6.66c1.39,1.49,1.89,3.61,1.33,5.56Z"/>
    <path class="cls-2" d="m1033.1,321.9l-4.66,9.84c-1.51,3.19-4.39,5.24-7.6,5.42l-9.35.52c-3.19.18-6.26-1.53-8.11-4.51l-5.75-9.23c-1.47-3.24-1.4-4.66-.34-6.82l4.78-9.7c1.53-3.11,4.37-5.1,7.52-5.27l9.5-.53c3.22-.18,6.32,1.56,8.17,4.6l5.48,9c1.22,2.01,1.36,4.56.35,6.68Z"/>
  </g>
  <g class="cls-3">
    <path class="cls-2" d="m61.24,481.47l-9.28-2.96c-3.01-.96-6.18-.25-8.37,1.87l-6.39,6.19c-2.18,2.11-3.08,5.33-2.39,8.5l2.14,9.84c1.1,3.07,2.06,3.92,4.12,4.54l9.27,2.8c2.97.9,6.08.18,8.23-1.91l6.49-6.29c2.2-2.14,3.1-5.39,2.37-8.6l-2.17-9.51c-.48-2.12-2.02-3.82-4.02-4.46Z"/>
    <path class="cls-2" d="m45.79,401.16l-13.5-4.68c-4.38-1.52-9.07-.84-12.38,1.81l-9.66,7.7c-3.3,2.63-4.77,6.82-3.89,11.09l2.71,13.23c.6,2.93,2.85,5.37,5.85,6.36l13.5,4.46c4.33,1.43,8.92.72,12.18-1.87l9.82-7.83c3.33-2.66,4.8-6.91,3.87-11.22l-2.76-12.79c-.62-2.85-2.8-5.24-5.71-6.25Z"/>
    <path class="cls-1" d="m24.58,497.34l-8.33-1.79c-2.7-.58-5.44.17-7.23,1.99l-5.22,5.29c-1.78,1.81-2.38,4.41-1.57,6.88l2.49,7.66c.55,1.7,2.05,2.98,3.9,3.35l8.31,1.66c2.67.53,5.34-.23,7.11-2.01l5.31-5.38c1.8-1.82,2.39-4.46,1.55-6.96l-2.5-7.4c-.56-1.65-2.01-2.91-3.81-3.29Z"/>
    <path class="cls-2" d="m69.39,325.45l-11.32-2.51c-3.67-.81-7.37.17-9.78,2.6l-7.01,7.09c-2.39,2.42-3.16,5.93-2.04,9.28l3.48,10.38c.77,2.3,2.82,4.06,5.33,4.57l11.29,2.33c3.62.75,7.24-.25,9.61-2.64l7.12-7.21c2.42-2.45,3.18-6,2-9.38l-3.48-10.03c-.78-2.24-2.76-3.95-5.21-4.49Z"/>
    <path class="cls-2" d="m35.02,2.56l-7.62-1.43c-2.47-.46-4.93.28-6.5,1.96l-4.57,4.91c-1.56,1.67-2.01,4.04-1.2,6.26l2.51,6.88c.56,1.52,1.96,2.65,3.65,2.94l7.6,1.31c2.44.42,4.84-.33,6.38-1.98l4.64-4.99c1.57-1.69,2.02-4.09,1.17-6.33l-2.51-6.64c-.56-1.48-1.92-2.59-3.56-2.89Z"/>
    <path class="cls-1" d="m61.94,275.54l-12.2,1.31c-3.96.42-7.33,2.66-8.92,5.92l-4.61,9.49c-1.57,3.24-1.15,7.02,1.12,10l7.03,9.24c1.56,2.05,4.21,3.12,6.9,2.79l12.12-1.48c3.88-.47,7.18-2.7,8.73-5.9l4.68-9.64c1.59-3.27,1.14-7.09-1.19-10.09l-6.91-8.89c-1.54-1.98-4.12-3.03-6.75-2.75Z"/>
    <path class="cls-2" d="m24.9,306.61l-8.27.94c-2.68.3-5,1.87-6.13,4.13l-3.28,6.6c-1.12,2.25-.9,4.88.58,6.95l4.59,6.4c1.78,1.86,2.79,2.16,4.62,1.92l8.22-1.06c2.63-.34,4.9-1.89,6-4.12l3.33-6.71c1.13-2.28.89-4.93-.63-7.01l-4.52-6.16c-1.01-1.37-2.73-2.1-4.52-1.89Z"/>
    <path class="cls-1" d="m144.63,325.25c-1.21-1.75-2.34-2.74-2.89-3.28-.55-.54-.54-.57-1.69-.65-2.16-.14-5.15-.28-8.27.09-1.85.22-4.51.97-6.52,1.6-1.17.37-2.35.77-3.11,1.77-.5.66-1.04,1.41-1.59,2.24-1.01,1.52-2.55,3.88-3.86,7.27-.27.71-.57,1.55-.85,2.5-.38,1.28-.14,2.67.64,3.75l3.7,5.19-1.35-1.9c1.16,1.69,2.21,3.07,3.04,4.11,1.99,2.5,2.97,3.4,3.87,4.08.3.23.59.43.85.61.5.33,1.08.52,1.67.56.34.02.75.04,1.2.06,2.51.09,7.08.21,12.28-1.65.54-.19,1.4-.52,2.43-1"/>
    <path class="cls-1" d="m215.09,93.78c-2.15-.94-4.04-1.45-5.44-1.73-2.82-.58-5.06-.57-7.24-.55-2.3.02-3.46.03-4.28.31-1.49.5-3.05,2.2-6.09,5.58,0,0-1.56,1.73-3.72,4.53-1.22,1.58-1.48,2.2-1.87,2.85-.89,1.47-1.06,3.29-.48,4.91l2.75,7.7-1-2.82c.84,2.49,1.66,4.57,2.31,6.13,1.57,3.78,2.47,5.22,3.33,6.37.29.39.57.74.83,1.04.18.22.36.39.6.58.25.19.65.47,1.23.67"/>
    <path class="cls-2" d="m163.83,164.04c-2.33-.64-4.32-.89-5.78-.98-2.96-.2-5.24.1-7.46.41-2.35.32-3.52.49-4.32.87-1.45.69-2.81,2.56-5.45,6.26,0,0-1.36,1.9-3.18,4.93-1.03,1.71-1.21,2.34-1.52,3.04-.7,1.56-.63,3.36.18,4.86l3.85,7.17-1.41-2.63c1.2,2.33,2.31,4.25,3.19,5.7,2.12,3.49,3.23,4.79,4.26,5.8.35.34.68.65.99.91.22.19.42.33.7.49.28.16.73.37,1.35.49"/>
    <path class="cls-1" d="m139.48,153.03l-6.83-13.41c-2.22-4.35-6.45-7.18-11.19-7.47l-13.82-.86c-4.71-.29-9.26,1.97-12.02,5.97l-8.55,12.41c-2.2,4.36-2.1,6.29-.54,9.24l7.01,13.23c2.25,4.24,6.43,6.98,11.09,7.27l14.04.87c4.76.3,9.35-2.01,12.1-6.09l8.16-12.1c1.82-2.7,2.03-6.15.56-9.05Z"/>
    <path class="cls-1" d="m97.61,40.35c-.91.44-1.71,1.13-2.29,2l-5.42,8.09c-1.76,2.62-2.03,5.89-.72,8.63l3.83,7.98c1.31,2.72,3.99,4.53,7.11,4.8l9.65.81c1.3-.07,2.24-.22,2.98-.51"/>
    <path class="cls-2" d="m116.66,80.28l-13.28.79c-4.31.26-7.94,2.57-9.59,6.12l-4.82,10.35c-1.64,3.53-1.1,7.78,1.44,11.24l7.87,10.72c3.01,3.15,4.66,3.72,7.59,3.5l13.18-.98c4.23-.32,7.77-2.62,9.39-6.11l4.9-10.52c1.66-3.57,1.09-7.87-1.52-11.35l-7.73-10.32c-1.72-2.3-4.56-3.62-7.42-3.45Z"/>
    <path class="cls-2" d="m225.62,203.17l6.25,15.49c2.03,5.03,6.26,8.43,11.18,9l14.34,1.65c4.89.56,9.77-1.77,12.91-6.16l9.71-13.61c2.57-4.82,2.6-7.01,1.16-10.41l-6.45-15.3c-2.07-4.9-6.25-8.21-11.08-8.76l-14.57-1.67c-4.95-.57-9.87,1.82-13,6.3l-9.29,13.28c-2.07,2.96-2.52,6.86-1.17,10.2Z"/>
    <path class="cls-1" d="m212.6,147.23l-13.46-.76c-4.37-.25-8.41,1.71-10.68,5.17l-6.61,10.09c-2.25,3.44-2.43,7.88-.48,11.74l6.06,11.97c1.34,2.65,4.04,4.38,7.02,4.5l13.4.54c4.29.17,8.24-1.78,10.47-5.18l6.72-10.25c2.28-3.48,2.44-7.97.42-11.86l-5.99-11.54c-1.34-2.57-3.96-4.26-6.86-4.42Z"/>
    <path class="cls-2" d="m194.29,57.75l5.75,10.24c1.87,3.32,5.25,5.39,8.94,5.47l10.76.22c3.67.07,7.12-1.84,9.13-5.05l6.23-9.96c1.38-2.2,1.42-4.98.11-7.22l-5.88-10.09c-1.89-3.24-5.22-5.24-8.85-5.31l-10.93-.22c-3.71-.07-7.19,1.88-9.2,5.15l-5.94,9.71c-1.32,2.17-1.37,4.87-.13,7.08Z"/>
    <path class="cls-2" d="m168.57,112.57l-13.28-1.05c-4.31-.34-8.24,1.45-10.39,4.73l-6.27,9.57c-2.14,3.26-2.21,7.54-.19,11.31l6.26,11.68c2.53,3.52,4.08,4.31,7.02,4.5l13.21.84c4.24.27,8.08-1.52,10.19-4.75l6.37-9.72c2.16-3.3,2.21-7.63.13-11.43l-6.18-11.26c-1.38-2.51-4-4.2-6.87-4.43Z"/>
    <path class="cls-2" d="m78.17,12.44l-13.09-2.48c-4.25-.81-8.35.55-10.85,3.58l-7.28,8.83c-2.48,3.01-3.02,7.26-1.43,11.23l4.94,12.29c2.13,3.78,3.59,4.73,6.48,5.24l13.04,2.27c4.18.73,8.2-.63,10.65-3.61l7.4-8.97c2.51-3.05,3.03-7.35,1.38-11.35l-4.91-11.87c-1.09-2.65-3.51-4.61-6.34-5.15Z"/>
    <path class="cls-1" d="m173.81,410.47l-10.35-.61c-3.36-.2-6.46,1.29-8.19,3.94l-5.05,7.71c-1.72,2.63-1.85,6.03-.34,9l4.69,9.18c1.91,2.76,3.11,3.36,5.4,3.46l10.29.45c3.3.14,6.33-1.34,8.03-3.94l5.13-7.84c1.74-2.66,1.85-6.1.29-9.09l-4.63-8.85c-1.03-1.97-3.05-3.27-5.28-3.41Z"/>
    <path class="cls-1" d="m72.45,63.76l-8.29-.08c-2.69-.03-5.11,1.28-6.39,3.46l-3.74,6.36c-1.27,2.17-1.24,4.89.08,7.2l4.1,7.15c1.64,2.13,2.62,2.56,4.45,2.55l8.24-.04c2.64-.01,5-1.32,6.26-3.46l3.8-6.46c1.29-2.19,1.24-4.95-.12-7.27l-4.05-6.89c-.9-1.54-2.56-2.5-4.35-2.51Z"/>
    <path class="cls-1" d="m261.78,123.58l-12.46-.81c-4.04-.26-7.76,1.5-9.83,4.65l-6.02,9.2c-2.06,3.14-2.18,7.21-.34,10.77l5.71,11.03c2.32,3.32,3.77,4.05,6.53,4.18l12.39.61c3.97.2,7.61-1.56,9.64-4.66l6.12-9.34c2.08-3.17,2.18-7.29.28-10.88l-5.64-10.63c-1.26-2.37-3.69-3.94-6.38-4.12Z"/>
    <path class="cls-1" d="m33.94,34.66l-12.5-2.59c-4.06-.84-8.06.41-10.58,3.3l-7.35,8.44c-2.51,2.88-3.19,6.97-1.81,10.83l4.28,11.95c1.9,3.68,3.27,4.63,6.04,5.16l12.46,2.38c4,.76,7.91-.5,10.39-3.34l7.47-8.57c2.53-2.91,3.2-7.06,1.76-10.95l-4.27-11.54c-.95-2.57-3.2-4.51-5.9-5.07Z"/>
    <path class="cls-1" d="m149.61,58.64l-8.71,11.86c-2.83,3.85-3.41,8.57-1.55,12.49l5.42,11.41c1.85,3.89,5.86,6.43,10.6,6.71l14.7.88c4.81-.34,6.46-1.34,8.34-3.99l8.47-11.91c2.72-3.82,3.25-8.46,1.42-12.31l-5.51-11.6c-1.87-3.94-5.94-6.48-10.75-6.72l-14.26-.71c-3.18-.16-6.3,1.32-8.18,3.88Z"/>
    <path class="cls-2" d="m185.86,378.45l-4.26-10.52c-1.38-3.42-4.27-5.76-7.63-6.2l-9.79-1.27c-3.34-.43-6.67,1.08-8.82,4.01l-6.64,9.07c-1.76,3.23-1.78,4.7-.8,7.01l4.39,10.39c1.41,3.33,4.26,5.61,7.56,6.04l9.95,1.29c3.38.44,6.74-1.12,8.88-4.1l6.35-8.86c1.42-1.98,1.72-4.6.8-6.87Z"/>
    <path class="cls-2" d="m157.37,222.82l-5.65-10.93c-1.83-3.55-5.18-5.79-8.84-5.92l-10.68-.39c-3.64-.13-7.08,1.84-9.1,5.21l-6.24,10.45c-1.57,3.66-1.44,5.25-.16,7.65l5.78,10.78c1.85,3.45,5.15,5.62,8.76,5.76l10.85.39c3.68.13,7.15-1.88,9.16-5.32l5.95-10.19c1.33-2.27,1.39-5.13.17-7.49Z"/>
    <path class="cls-2" d="m46.74,127.71c-.48,1.28-.81,2.43-1.02,3.39-.21.95-.06,1.88.35,2.71,1.05,2.12,2.52,4.58,4.6,7.06,1.68,2.01,3.42,3.63,5.01,4.92,1.02.82,2.3,1.31,3.7,1.42.93.07,1.97.12,3.11.13,2.07.02,5.27.04,9.4-.79.87-.17,1.87-.41,2.99-.72,1.49-.42,2.78-1.48,3.47-2.85l3.32-6.53-1.22,2.39c1.1-2.09,1.95-3.89,2.57-5.28,1.49-3.34,1.88-4.79,2.11-6.03.08-.42.13-.81.17-1.15.08-.67-.04-1.31-.31-1.88-.16-.33-.35-.72-.57-1.14-1.23-2.38-3.51-6.68-8.12-10.37-.48-.38-1.26-.98-2.29-1.65"/>
    <path class="cls-2" d="m114.33,352.32l-15.25-3.98c-4.95-1.29-9.99,0-13.32,3.43l-9.7,9.97c-3.31,3.4-4.46,8.42-3.04,13.28l4.4,15.05c.97,3.33,3.69,5.92,7.08,6.75l15.22,3.72c4.88,1.19,9.81-.12,13.08-3.49l9.86-10.13c3.35-3.44,4.48-8.53,2.99-13.43l-4.41-14.54c-.98-3.24-3.62-5.77-6.92-6.63Z"/>
    <path class="cls-1" d="m142.36,270.81l-13.62-.86c-4.42-.28-8.49,1.66-10.76,5.12l-6.61,10.09c-2.25,3.44-2.4,7.9-.39,11.8l6.22,12.07c1.38,2.67,4.12,4.43,7.13,4.57l13.55.65c4.35.21,8.32-1.73,10.55-5.13l6.72-10.25c2.28-3.48,2.4-7.99.33-11.92l-6.15-11.64c-1.37-2.59-4.03-4.31-6.97-4.5Z"/>
    <path class="cls-1" d="m128.76,63.47c.92-.58,1.7-1.38,2.24-2.34l5.03-8.91c1.63-2.89,1.66-6.21.07-8.78l-4.64-7.47c-1.58-2.55-4.54-3.98-7.82-3.8l-10.17.58c-1.35.26-2.32.55-3.08.94"/>
    <path class="cls-1" d="m100.39,190.17l-7.57,10.98c-2.45,3.56-2.86,7.85-1.07,11.34l5.23,10.16c1.78,3.47,5.48,5.64,9.79,5.76l13.34.36c4.35-.45,5.81-1.4,7.45-3.85l7.35-11.02c2.36-3.53,2.72-7.74.95-11.17l-5.31-10.32c-1.8-3.5-5.56-5.69-9.92-5.76l-12.94-.22c-2.89-.05-5.67,1.38-7.31,3.75Z"/>
    <path class="cls-2" d="m37.62,80.65l-12.74.11c-4.13.04-7.82,2.13-9.74,5.52l-5.59,9.9c-1.91,3.38-1.8,7.57.29,11.09l6.47,10.89c2.56,3.23,4.08,3.87,6.9,3.8l12.66-.31c4.06-.1,7.66-2.18,9.54-5.52l5.68-10.06c1.93-3.41,1.79-7.66-.36-11.19l-6.38-10.49c-1.42-2.34-4-3.77-6.75-3.75Z"/>
    <path class="cls-1" d="m21.07,276.06c12.16-2.66,12.71-2.34,14.64-5.39l6.28-9.3c2.13-3.15,2.24-7.33.3-11.01l-5.78-10.93c-1.29-2.44-3.79-4.1-6.54-4.35l-14.64-.56c-3.89-.12-3.86.56-8.71,4.33"/>
    <path class="cls-2" d="m103.52,304.41l-10.37-1.06c-3.37-.35-6.55,1.02-8.42,3.61l-5.45,7.55c-1.86,2.58-2.15,6-.77,9.05l4.28,9.45c1.79,2.86,2.97,3.52,5.27,3.72l10.33.9c3.31.29,6.43-1.08,8.27-3.63l5.54-7.67c1.88-2.6,2.15-6.07.73-9.14l-4.24-9.12c-.95-2.03-2.91-3.43-5.15-3.66Z"/>
    <path class="cls-2" d="m162.35,254.43c-.82.54-1.49,1.33-1.93,2.33l-4.07,9.25c-1.32,3-1.1,6.65.57,9.65l4.88,8.73c1.67,2.98,4.54,4.88,7.6,5.04l9.48.48c1.25-.13,2.14-.35,2.81-.7"/>
    <path class="cls-1" d="m240.88,315.01c-1.82,1.54-3.13,3.03-4.01,4.16-1.8,2.3-2.79,4.34-3.76,6.33-1.02,2.1-1.52,3.15-1.64,4.02-.22,1.58.62,3.75,2.32,8.02,0,0,.87,2.19,2.43,5.4.88,1.81,1.32,2.32,1.74,2.97.93,1.46,2.5,2.43,4.22,2.62l8.2.94-3.01-.35c2.64.35,4.88.53,6.59.64,4.12.25,5.84.09,7.26-.18.48-.09.92-.19,1.31-.29.28-.07.51-.16.8-.29.29-.14.71-.38,1.16-.82"/>
    <path class="cls-1" d="m247.27,542.99c-2.31-.56-4.29-.74-5.73-.79-2.92-.09-5.15.3-7.32.7-2.29.42-3.44.63-4.21,1.05-1.4.76-2.65,2.72-5.09,6.6,0,0-1.25,1.99-2.92,5.15-.94,1.78-1.09,2.44-1.37,3.16-.62,1.62-.48,3.46.38,4.96l4.09,7.18-1.5-2.63c1.28,2.34,2.45,4.25,3.38,5.7,2.23,3.48,3.38,4.77,4.44,5.76.36.34.7.63,1.01.89.22.18.43.32.7.47.28.15.73.35,1.34.45"/>
    <path class="cls-2" d="m133.31,506.14l-5.22,11.98c-1.69,3.89-1.27,8.21,1.12,11.42l6.98,9.37c2.38,3.19,6.37,4.84,10.56,4.34l12.96-1.53c2.87-.34,5.35-2.21,6.47-4.88l5.01-11.99c1.61-3.84,1.15-8.08-1.2-11.24l-7.09-9.52c-2.41-3.23-6.45-4.87-10.68-4.33l-12.54,1.61c-2.8.36-5.22,2.18-6.35,4.76Z"/>
    <path class="cls-1" d="m177.9,468.83c-1.13.77-2.06,1.84-2.67,3.11l-5.65,11.83c-1.83,3.84-1.56,8.23.74,11.61l6.69,9.84c2.28,3.36,6.23,5.23,10.45,4.96l13.06-.84c1.72-.35,2.95-.74,3.88-1.27"/>
    <path class="cls-2" d="m28.94,524.17l-8.04,9.26c-2.61,3.01-3.43,6.94-2.18,10.41l3.66,10.1c1.25,3.44,4.38,5.93,8.27,6.58l12.07,2c3.99.13,5.43-.58,7.17-2.65l7.85-9.33c2.52-2.99,3.29-6.86,2.06-10.27l-3.72-10.26c-1.26-3.48-4.44-5.98-8.39-6.59l-11.72-1.82c-2.61-.41-5.3.58-7.04,2.58Z"/>
    <path class="cls-1" d="m152.59,463.19l-8.95.21c-2.9.07-5.51,1.6-6.88,4.05l-4.01,7.15c-1.37,2.44-1.32,5.44.11,7.94l4.45,7.74c1.77,2.29,2.83,2.74,4.81,2.66l8.89-.35c2.85-.11,5.39-1.64,6.75-4.05l4.07-7.27c1.38-2.47,1.32-5.5-.16-8.02l-4.39-7.46c-.98-1.66-2.78-2.66-4.71-2.62Z"/>
    <path class="cls-1" d="m77.13,503.67l-8.86,11.31c-2.87,3.67-3.59,8.22-1.9,12.03l4.93,11.1c1.68,3.79,5.51,6.3,10.13,6.65l14.3,1.08c4.7-.25,6.34-1.19,8.25-3.72l8.63-11.37c2.77-3.64,3.43-8.11,1.77-11.86l-5.01-11.28c-1.7-3.83-5.59-6.35-10.27-6.66l-13.88-.91c-3.09-.2-6.18,1.18-8.1,3.62Z"/>
    <path class="cls-1" d="m166.43,587.75c1.49-.27,2.76-.59,3.79-.92,1.01-.33,1.78-.96,2.27-1.76,1.28-2.06,2.59-4.67,3.54-7.83.77-2.56,1.14-4.95,1.29-7.04.1-1.34-.27-2.72-1.09-4.01-.54-.85-1.17-1.79-1.9-2.8-1.32-1.82-3.38-4.65-6.82-7.83-.72-.67-1.59-1.43-2.59-2.24-1.35-1.09-3.16-1.65-4.87-1.52l-8.18.59,3-.21c-2.64.15-4.85.37-6.53.57-4.04.48-5.64.92-6.93,1.39-.44.16-.83.32-1.17.47-.66.29-1.18.73-1.53,1.28-.2.32-.44.69-.69,1.11-1.4,2.36-3.89,6.66-4.31,12.7-.04.63-.09,1.63-.04,2.9"/>
    <path class="cls-1" d="m39.12,171.9c.88-.62,1.58-1.49,2.01-2.55l3.97-9.85c1.29-3.2.82-6.93-1.23-9.87l-5.98-8.58c-2.04-2.93-5.36-4.65-8.78-4.56l-10.6.28c-1.38.24-2.36.53-3.1.95"/>
    <path class="cls-2" d="m78.47,484.59l11.83,5.54c3.84,1.8,8.07,1.49,11.17-.8l9.05-6.68c3.09-2.28,4.62-6.21,4.07-10.39l-1.73-12.94c-1.11-4.12-2.26-5.39-4.9-6.57l-11.84-5.32c-3.8-1.71-7.94-1.37-10.99.88l-9.2,6.79c-3.12,2.3-4.66,6.29-4.05,10.51l1.8,12.53c.4,2.79,2.22,5.26,4.78,6.45Z"/>
    <path class="cls-2" d="m82.89,250.39l8.12-12.46c2.63-4.04,2.97-8.86.88-12.72l-6.08-11.27c-2.07-3.84-6.25-6.2-11.04-6.24l-14.84-.12c-4.82.59-6.43,1.69-8.18,4.47l-7.88,12.5c-2.53,4.01-2.81,8.73-.76,12.53l6.18,11.45c2.1,3.89,6.34,6.25,11.19,6.24l14.39-.03c3.21,0,6.27-1.67,8.03-4.36Z"/>
    <path class="cls-1" d="m185.95,527.92l-4.99,10.91c-1.62,3.54-1.33,7.49.77,10.43l6.12,8.58c2.09,2.93,5.67,4.44,9.47,4.01l11.77-1.33c2.61-.29,4.9-1.99,5.96-4.42l4.8-10.92c1.54-3.5,1.22-7.37-.84-10.26l-6.22-8.71c-2.11-2.96-5.74-4.47-9.58-4l-11.4,1.41c-2.54.31-4.78,1.96-5.85,4.32Z"/>
    <path class="cls-1" d="m222.02,291.99l-9.66-2.54c-3.13-.83-6.39,0-8.61,2.17l-6.46,6.33c-2.2,2.16-3.07,5.35-2.28,8.44l2.44,9.57c1.21,2.97,2.21,3.77,4.36,4.3l9.64,2.38c3.09.76,6.28-.07,8.46-2.2l6.57-6.43c2.23-2.18,3.08-5.42,2.25-8.54l-2.46-9.25c-.55-2.06-2.17-3.68-4.26-4.23Z"/>
    <path class="cls-1" d="m188.25,361.95l5.61,12.22c1.82,3.96,5.34,6.54,9.3,6.81l11.54.78c3.94.27,7.75-1.79,10.08-5.44l7.23-11.3c1.87-3.97,1.8-5.73.52-8.41l-5.76-12.05c-1.85-3.86-5.32-6.36-9.21-6.63l-11.72-.79c-3.98-.27-7.83,1.83-10.15,5.55l-6.9,11.03c-1.54,2.46-1.74,5.61-.53,8.24Z"/>
    <path class="cls-1" d="m37.04,377.71l.46,8.35c.15,2.71,1.63,5.05,3.92,6.2l6.67,3.33c2.27,1.13,5.02.92,7.27-.58l6.95-4.62c2.04-1.79,2.42-2.81,2.29-4.66l-.59-8.29c-.19-2.66-1.66-4.95-3.91-6.07l-6.78-3.38c-2.3-1.15-5.08-.91-7.34.62l-6.69,4.55c-1.49,1.01-2.35,2.75-2.25,4.56Z"/>
    <path class="cls-2" d="m220.79,580.29c-.27-.99-.8-1.92-1.56-2.69l-7.06-7.13c-2.29-2.32-5.52-3.33-8.52-2.69l-8.76,1.87c-2.99.64-5.33,2.83-6.21,5.79l-2.7,9.19c-.18,1.27-.21,2.22-.07,3.01"/>
    <path class="cls-1" d="m53.63,586.52c.12-.96-.02-1.97-.43-2.93l-3.81-8.91c-1.24-2.89-3.81-5.02-6.81-5.63l-8.73-1.77c-2.98-.6-5.94.39-7.85,2.62l-5.9,6.91c-.64,1.03-1.03,1.85-1.19,2.58"/>
    <path class="cls-1" d="m103.61,400.69l4.19,12.81c1.36,4.16,4.57,7.13,8.48,7.85l11.4,2.1c3.89.72,7.92-.89,10.67-4.26l8.5-10.43c2.32-3.74,2.45-5.51,1.48-8.32l-4.35-12.67c-1.4-4.06-4.57-6.95-8.41-7.65l-11.58-2.13c-3.93-.72-8,.93-10.75,4.37l-8.14,10.19c-1.82,2.27-2.38,5.38-1.48,8.15Z"/>
    <path class="cls-2" d="m59.69,569.53l2.62,9.05c.85,2.94,3.08,5.14,5.89,5.82l8.19,1.98c2.79.68,5.76-.25,7.86-2.45l6.49-6.81c1.8-2.48,1.95-3.69,1.34-5.68l-2.75-8.96c-.88-2.87-3.08-5.01-5.85-5.68l-8.32-2.02c-2.82-.68-5.83.27-7.92,2.51l-6.22,6.66c-1.39,1.49-1.89,3.61-1.33,5.56Z"/>
    <path class="cls-2" d="m154.59,319.61l4.66,9.84c1.51,3.19,4.39,5.24,7.6,5.42l9.35.52c3.19.18,6.26-1.53,8.11-4.51l5.75-9.23c1.47-3.24,1.4-4.66.34-6.82l-4.78-9.7c-1.53-3.11-4.37-5.1-7.52-5.27l-9.5-.53c-3.22-.18-6.32,1.56-8.17,4.6l-5.48,9c-1.22,2.01-1.36,4.56-.35,6.68Z"/>
  </g>
</svg>